Coordinates
version=1
nRows=20
nColumns=38
inDegrees=no

Units are S.I. units (second, meters, Newtons, ...)
If the header above contains a line with 'inDegrees', this indicates whether rotational values are in degrees (yes) or radians (no).

endheader
time	pelvis_tilt	pelvis_list	pelvis_rotation	pelvis_tx	pelvis_ty	pelvis_tz	hip_flexion_r	hip_adduction_r	hip_rotation_r	knee_angle_r	ankle_angle_r	subtalar_angle_r	mtp_angle_r	hip_flexion_l	hip_adduction_l	hip_rotation_l	knee_angle_l	ankle_angle_l	subtalar_angle_l	mtp_angle_l	lumbar_extension	lumbar_bending	lumbar_rotation	arm_flex_r	arm_add_r	arm_rot_r	elbow_flex_r	pro_sup_r	wrist_flex_r	wrist_dev_r	arm_flex_l	arm_add_l	arm_rot_l	elbow_flex_l	pro_sup_l	wrist_flex_l	wrist_dev_l
1.5	-2.79229	1.46201	-1.97671	0.850644	1.16808	0.985273	-0.0238949	-0.186366	-0.317669	0.999452	-0.0446871	0	0	0.299308	0.0668703	-0.321441	0.421871	0.0685099	0	0	-0.308576	-0.059749	0.101373	-0.0654245	-0.210039	0.011245	0.42056	1.39569	0	0	0.0154176	-0.260059	0.404647	0.407787	1.24191	0	0
1.51	-2.62915	1.47677	-2.13498	0.849872	1.17694	0.983023	0.0418614	-0.205077	-0.292856	1.07115	-0.0995427	0	0	0.314827	0.0737328	-0.334813	0.428212	0.0777552	0	0	-0.286584	-0.0671273	0.0982328	-0.0679707	-0.207125	0.00876504	0.416871	1.39706	0	0	0.013535	-0.26726	0.41548	0.415737	1.23603	0	0
1.52	-2.40811	1.48584	-2.35091	0.849048	1.1856	0.981212	0.105793	-0.223088	-0.265697	1.13711	-0.153288	0	0	0.328073	0.0834145	-0.345873	0.433099	0.0854977	0	0	-0.266534	-0.0769321	0.0944273	-0.0705018	-0.203772	0.00705101	0.41466	1.3964	0	0	0.0116778	-0.276257	0.429857	0.426975	1.2261	0	0
1.53	-2.20939	1.48658	-2.54351	0.848275	1.1942	0.980362	0.160806	-0.23918	-0.239298	1.19505	-0.207897	0	0	0.334105	0.0944422	-0.351527	0.436553	0.0916783	0	0	-0.253692	-0.0872002	0.0898104	-0.0730901	-0.199755	0.00503598	0.414965	1.39425	0	0	0.011262	-0.285929	0.444296	0.43891	1.21481	0	0
1.54	-2.077	1.48395	-2.66945	0.84768	1.20263	0.980397	0.207909	-0.250138	-0.213502	1.24477	-0.26133	0	0	0.334154	0.103794	-0.352885	0.438117	0.0972504	0	0	-0.247274	-0.0954314	0.0855716	-0.075005	-0.195009	0.00146942	0.416443	1.39208	0	0	0.0130263	-0.29509	0.457887	0.450093	1.2019	0	0
1.55	-2.05989	1.4836	-2.67995	0.847051	1.21066	0.981818	0.252804	-0.255886	-0.191429	1.2965	-0.31637	0	0	0.326257	0.106667	-0.347427	0.43936	0.102917	0	0	-0.250818	-0.0954044	0.08242	-0.0744771	-0.192073	-0.00141492	0.418517	1.39073	0	0	0.0195588	-0.298802	0.464455	0.45334	1.19418	0	0
1.56	-2.03872	1.48095	-2.69105	0.846918	1.21946	0.982984	0.274788	-0.250981	-0.168231	1.32278	-0.321016	0	0	0.316601	0.11233	-0.3369	0.440977	0.111177	0	0	-0.252574	-0.0987692	0.0754822	-0.0762821	-0.185609	-0.00619363	0.420757	1.38955	0	0	0.0231555	-0.306224	0.47012	0.458703	1.18762	0	0
1.57	-2.06339	1.48437	-2.66098	0.846424	1.22732	0.98504	0.31612	-0.247249	-0.145222	1.36698	-0.328732	0	0	0.30479	0.111991	-0.323471	0.436784	0.114768	0	0	-0.257799	-0.0931371	0.074204	-0.0744221	-0.183804	-0.0094144	0.422251	1.38799	0	0	0.031527	-0.306014	0.473378	0.456102	1.18456	0	0
1.58	-2.0465	1.47657	-2.66778	0.846016	1.23553	0.987375	0.332078	-0.244593	-0.119909	1.38259	-0.294167	0	0	0.286708	0.124287	-0.317036	0.423909	0.112146	0	0	-0.264598	-0.100556	0.065568	-0.0706846	-0.17664	-0.0156483	0.418108	1.38824	0	0	0.0399486	-0.30993	0.475832	0.452964	1.1841	0	0
1.59	-2.07319	1.47906	-2.63737	0.845669	1.2438	0.98927	0.358901	-0.234422	-0.0964521	1.40365	-0.271498	0	0	0.270396	0.124977	-0.307768	0.413182	0.114738	0	0	-0.268339	-0.0956694	0.0657935	-0.0684212	-0.174335	-0.0211707	0.41578	1.39004	0	0	0.0478923	-0.308642	0.476686	0.447248	1.18721	0	0
1.6	-2.08706	1.48189	-2.62037	0.845358	1.25196	0.991077	0.385891	-0.224419	-0.0743192	1.41873	-0.253612	0	0	0.255412	0.125167	-0.300432	0.402856	0.117128	0	0	-0.270506	-0.0912062	0.0663158	-0.0654993	-0.171927	-0.0261225	0.412392	1.39055	0	0	0.055891	-0.307093	0.476012	0.440952	1.19314	0	0
1.61	-2.08703	1.4849	-2.61728	0.845049	1.26005	0.992774	0.412727	-0.214314	-0.0528588	1.42804	-0.241741	0	0	0.241452	0.125592	-0.294201	0.391626	0.118049	0	0	-0.271221	-0.0874247	0.0660367	-0.0622303	-0.169664	-0.0285337	0.408908	1.39019	0	0	0.0634489	-0.305827	0.473883	0.434404	1.20073	0	0
1.62	-2.07433	1.48827	-2.62618	0.84473	1.26812	0.994274	0.438996	-0.204515	-0.0329975	1.43233	-0.233626	0	0	0.228566	0.12633	-0.286837	0.379757	0.119588	0	0	-0.27063	-0.0840593	0.0644463	-0.0592169	-0.167523	-0.0285973	0.406454	1.3894	0	0	0.0701015	-0.306148	0.473473	0.430306	1.20635	0	0
1.63	-2.04945	1.49253	-2.64686	0.844362	1.27615	0.995563	0.464862	-0.194805	-0.0149814	1.43205	-0.226331	0	0	0.217238	0.126477	-0.278162	0.368304	0.121906	0	0	-0.268923	-0.0804495	0.0621855	-0.0563034	-0.165498	-0.0281244	0.404607	1.38739	0	0	0.0763172	-0.307664	0.475255	0.4278	1.21038	0	0
1.64	-2.04201	1.50704	-2.6512	0.844036	1.28455	0.995752	0.492026	-0.174694	-0.00209526	1.42826	-0.218298	0	0	0.21139	0.116341	-0.26711	0.361779	0.131457	0	0	-0.261055	-0.066063	0.063497	-0.0578268	-0.166832	-0.0250893	0.407651	1.38323	0	0	0.0797337	-0.308206	0.479667	0.42642	1.21213	0	0
1.65	-2.01728	1.50052	-2.66899	0.843379	1.29213	0.998011	0.508456	-0.179175	0.0118966	1.41763	-0.211794	0	0	0.194283	0.125723	-0.267278	0.348085	0.126591	0	0	-0.268286	-0.0724363	0.0546476	-0.050443	-0.16287	-0.0229614	0.403502	1.37804	0	0	0.0886035	-0.312808	0.484517	0.42464	1.21169	0	0
1.66	-2.04931	1.50775	-2.62821	0.841743	1.30113	0.998358	0.539611	-0.220052	-0.039045	1.42112	-0.230956	0	0	0.179415	0.123905	-0.252453	0.337165	0.134141	0	0	-0.266007	-0.0608728	0.0481669	-0.0535542	-0.16582	-0.0187007	0.408843	1.37373	0	0	0.0909116	-0.313294	0.491717	0.423827	1.20975	0	0
1.67	-2.19483	1.50754	-2.47156	0.840488	1.30992	1.00033	0.521656	-0.231806	-0.0614408	1.38257	-0.193254	0	0	0.153792	0.122555	-0.241098	0.324683	0.136136	0	0	-0.276542	-0.0527837	0.0375683	-0.0518137	-0.16601	-0.0125947	0.41126	1.36408	0	0	0.0967964	-0.315846	0.501824	0.421744	1.20358	0	0
1.68	-2.10027	1.51583	-2.56495	0.840309	1.31716	1.00058	0.566595	-0.207866	-0.0297444	1.38267	-0.201367	0	0	0.152689	0.119958	-0.23716	0.319047	0.141052	0	0	-0.270716	-0.049367	0.0359332	-0.0479876	-0.16503	-0.00966255	0.412219	1.36088	0	0	0.103372	-0.317765	0.507253	0.419015	1.20051	0	0
1.69	-2.10215	1.51919	-2.55801	0.839554	1.32531	1.00136	0.579365	-0.203507	-0.0260303	1.35925	-0.18597	0	0	0.140528	0.119052	-0.231892	0.310099	0.144918	0	0	-0.271347	-0.0451811	0.0303996	-0.0458057	-0.16427	-0.00684927	0.413524	1.35781	0	0	0.108865	-0.318854	0.513632	0.415034	1.19692	0	0
